<svg id="visual" viewBox="0 0 960 540" width="960" height="540" xmlns="http://www.w3.org/2000/svg" xmlns:xlink="http://www.w3.org/1999/xlink" version="1.1"><path d="M0 190L137 162L274 213L411 157L549 167L686 192L823 172L960 144L960 0L823 0L686 0L549 0L411 0L274 0L137 0L0 0Z" fill="#022949"></path><path d="M0 115L137 169L274 162L411 162L549 123L686 125L823 173L960 156L960 0L823 0L686 0L549 0L411 0L274 0L137 0L0 0Z" fill="#465873"></path><path d="M0 100L137 92L274 139L411 102L549 120L686 145L823 109L960 89L960 0L823 0L686 0L549 0L411 0L274 0L137 0L0 0Z" fill="#818ca0"></path><path d="M0 73L137 59L274 94L411 65L549 60L686 94L823 75L960 63L960 0L823 0L686 0L549 0L411 0L274 0L137 0L0 0Z" fill="#bfc4cf"></path><path d="M0 61L137 46L274 58L411 27L549 61L686 29L823 63L960 44L960 0L823 0L686 0L549 0L411 0L274 0L137 0L0 0Z" fill="#ffffff"></path></svg>