<svg id="visual" viewBox="0 0 960 540" width="960" height="540" xmlns="http://www.w3.org/2000/svg" xmlns:xlink="http://www.w3.org/1999/xlink" version="1.1"><path d="M0 384L137 384L274 316L411 385L549 356L686 371L823 390L960 329L960 541L823 541L686 541L549 541L411 541L274 541L137 541L0 541Z" fill="#022949"></path><path d="M0 361L137 401L274 382L411 394L549 373L686 402L823 390L960 355L960 541L823 541L686 541L549 541L411 541L274 541L137 541L0 541Z" fill="#465873"></path><path d="M0 442L137 416L274 403L411 450L549 441L686 429L823 422L960 427L960 541L823 541L686 541L549 541L411 541L274 541L137 541L0 541Z" fill="#818ca0"></path><path d="M0 450L137 445L274 476L411 446L549 433L686 445L823 463L960 457L960 541L823 541L686 541L549 541L411 541L274 541L137 541L0 541Z" fill="#bfc4cf"></path><path d="M0 484L137 485L274 509L411 514L549 505L686 472L823 495L960 498L960 541L823 541L686 541L549 541L411 541L274 541L137 541L0 541Z" fill="#ffffff"></path></svg>