<svg id="visual" viewBox="0 0 960 540" width="960" height="540" xmlns="http://www.w3.org/2000/svg" xmlns:xlink="http://www.w3.org/1999/xlink" version="1.1"><path d="M0 348L22.8 342.8C45.7 337.7 91.3 327.3 137 333.7C182.7 340 228.3 363 274 375.5C319.7 388 365.3 390 411.2 386.3C457 382.7 503 373.3 548.8 364.3C594.7 355.3 640.3 346.7 686 352.5C731.7 358.3 777.3 378.7 823 389C868.7 399.3 914.3 399.7 937.2 399.8L960 400L960 541L937.2 541C914.3 541 868.7 541 823 541C777.3 541 731.7 541 686 541C640.3 541 594.7 541 548.8 541C503 541 457 541 411.2 541C365.3 541 319.7 541 274 541C228.3 541 182.7 541 137 541C91.3 541 45.7 541 22.8 541L0 541Z" fill="#55bdca"></path><path d="M0 419L22.8 414.3C45.7 409.7 91.3 400.3 137 393C182.7 385.7 228.3 380.3 274 375.5C319.7 370.7 365.3 366.3 411.2 373.5C457 380.7 503 399.3 548.8 400.7C594.7 402 640.3 386 686 379.7C731.7 373.3 777.3 376.7 823 378.7C868.7 380.7 914.3 381.3 937.2 381.7L960 382L960 541L937.2 541C914.3 541 868.7 541 823 541C777.3 541 731.7 541 686 541C640.3 541 594.7 541 548.8 541C503 541 457 541 411.2 541C365.3 541 319.7 541 274 541C228.3 541 182.7 541 137 541C91.3 541 45.7 541 22.8 541L0 541Z" fill="#87ced7"></path><path d="M0 428L22.8 427.8C45.7 427.7 91.3 427.3 137 424.5C182.7 421.7 228.3 416.3 274 415C319.7 413.7 365.3 416.3 411.2 417.3C457 418.3 503 417.7 548.8 419.2C594.7 420.7 640.3 424.3 686 427.3C731.7 430.3 777.3 432.7 823 437.5C868.7 442.3 914.3 449.7 937.2 453.3L960 457L960 541L937.2 541C914.3 541 868.7 541 823 541C777.3 541 731.7 541 686 541C640.3 541 594.7 541 548.8 541C503 541 457 541 411.2 541C365.3 541 319.7 541 274 541C228.3 541 182.7 541 137 541C91.3 541 45.7 541 22.8 541L0 541Z" fill="#b1dee4"></path><path d="M0 473L22.8 467.3C45.7 461.7 91.3 450.3 137 451.5C182.7 452.7 228.3 466.3 274 468.7C319.7 471 365.3 462 411.2 462.2C457 462.3 503 471.7 548.8 477.2C594.7 482.7 640.3 484.3 686 479.7C731.7 475 777.3 464 823 461C868.7 458 914.3 463 937.2 465.5L960 468L960 541L937.2 541C914.3 541 868.7 541 823 541C777.3 541 731.7 541 686 541C640.3 541 594.7 541 548.8 541C503 541 457 541 411.2 541C365.3 541 319.7 541 274 541C228.3 541 182.7 541 137 541C91.3 541 45.7 541 22.8 541L0 541Z" fill="#d9eff1"></path><path d="M0 504L22.8 498.7C45.7 493.3 91.3 482.7 137 477.7C182.7 472.7 228.3 473.3 274 473.7C319.7 474 365.3 474 411.2 478.7C457 483.3 503 492.7 548.8 496.5C594.7 500.3 640.3 498.7 686 499.3C731.7 500 777.3 503 823 504.5C868.7 506 914.3 506 937.2 506L960 506L960 541L937.2 541C914.3 541 868.7 541 823 541C777.3 541 731.7 541 686 541C640.3 541 594.7 541 548.8 541C503 541 457 541 411.2 541C365.3 541 319.7 541 274 541C228.3 541 182.7 541 137 541C91.3 541 45.7 541 22.8 541L0 541Z" fill="#ffffff"></path></svg>