<svg id="visual" viewBox="0 0 960 540" width="960" height="540" xmlns="http://www.w3.org/2000/svg" xmlns:xlink="http://www.w3.org/1999/xlink" version="1.1"><path d="M0 136L22.8 137.3C45.7 138.7 91.3 141.3 137 146.7C182.7 152 228.3 160 274 163.5C319.7 167 365.3 166 411.2 170.2C457 174.3 503 183.7 548.8 190.7C594.7 197.7 640.3 202.3 686 205.3C731.7 208.3 777.3 209.7 823 209.2C868.7 208.7 914.3 206.3 937.2 205.2L960 204L960 0L937.2 0C914.3 0 868.7 0 823 0C777.3 0 731.7 0 686 0C640.3 0 594.7 0 548.8 0C503 0 457 0 411.2 0C365.3 0 319.7 0 274 0C228.3 0 182.7 0 137 0C91.3 0 45.7 0 22.8 0L0 0Z" fill="#55bdca"></path><path d="M0 121L22.8 124.2C45.7 127.3 91.3 133.7 137 134.3C182.7 135 228.3 130 274 137.5C319.7 145 365.3 165 411.2 173.2C457 181.3 503 177.7 548.8 164.5C594.7 151.3 640.3 128.7 686 121C731.7 113.3 777.3 120.7 823 128.7C868.7 136.7 914.3 145.3 937.2 149.7L960 154L960 0L937.2 0C914.3 0 868.7 0 823 0C777.3 0 731.7 0 686 0C640.3 0 594.7 0 548.8 0C503 0 457 0 411.2 0C365.3 0 319.7 0 274 0C228.3 0 182.7 0 137 0C91.3 0 45.7 0 22.8 0L0 0Z" fill="#87ced7"></path><path d="M0 118L22.8 119.5C45.7 121 91.3 124 137 125.2C182.7 126.3 228.3 125.7 274 128.7C319.7 131.7 365.3 138.3 411.2 131C457 123.7 503 102.3 548.8 95.3C594.7 88.3 640.3 95.7 686 102C731.7 108.3 777.3 113.7 823 112.8C868.7 112 914.3 105 937.2 101.5L960 98L960 0L937.2 0C914.3 0 868.7 0 823 0C777.3 0 731.7 0 686 0C640.3 0 594.7 0 548.8 0C503 0 457 0 411.2 0C365.3 0 319.7 0 274 0C228.3 0 182.7 0 137 0C91.3 0 45.7 0 22.8 0L0 0Z" fill="#b1dee4"></path><path d="M0 97L22.8 92.5C45.7 88 91.3 79 137 73.5C182.7 68 228.3 66 274 68.8C319.7 71.7 365.3 79.3 411.2 80.7C457 82 503 77 548.8 76.3C594.7 75.7 640.3 79.3 686 83.3C731.7 87.3 777.3 91.7 823 86.2C868.7 80.7 914.3 65.3 937.2 57.7L960 50L960 0L937.2 0C914.3 0 868.7 0 823 0C777.3 0 731.7 0 686 0C640.3 0 594.7 0 548.8 0C503 0 457 0 411.2 0C365.3 0 319.7 0 274 0C228.3 0 182.7 0 137 0C91.3 0 45.7 0 22.8 0L0 0Z" fill="#d9eff1"></path><path d="M0 22L22.8 28.2C45.7 34.3 91.3 46.7 137 50.5C182.7 54.3 228.3 49.7 274 45.3C319.7 41 365.3 37 411.2 37.3C457 37.7 503 42.3 548.8 41.7C594.7 41 640.3 35 686 37C731.7 39 777.3 49 823 48C868.7 47 914.3 35 937.2 29L960 23L960 0L937.2 0C914.3 0 868.7 0 823 0C777.3 0 731.7 0 686 0C640.3 0 594.7 0 548.8 0C503 0 457 0 411.2 0C365.3 0 319.7 0 274 0C228.3 0 182.7 0 137 0C91.3 0 45.7 0 22.8 0L0 0Z" fill="#ffffff"></path></svg>